<?xml version="1.0" encoding="utf-8"?>
<!-- Generator: Adobe Illustrator 24.0.2, SVG Export Plug-In . SVG Version: 6.00 Build 0)  -->
<svg version="1.1" id="Capa_1" xmlns="http://www.w3.org/2000/svg" xmlns:xlink="http://www.w3.org/1999/xlink" x="0px" y="0px"
	 viewBox="0 0 32 32" style="enable-background:new 0 0 32 32;" xml:space="preserve">
<style type="text/css">
	.st0{fill:#97C988;}
</style>
<g>
	<path class="st0" d="M9.79,18.78c0.28-0.32,2.48-2.76,6.07-2.62c3.64,0.14,5.65,2.82,5.89,3.16c-0.17-0.37-0.85-1.95-0.14-3.56
		c0.32-0.73,0.79-1.16,1.06-1.41c0.88-0.79,2.57-1.76,4.6-1.3c2.37,0.53,3.42,2.62,3.56,2.91c0.16-2.7-0.92-4.06-1.25-4.44
		c-2.14-2.43-7.1-2.62-11.59,0.51c-0.01-0.8,0.06-3.34,1.87-5.76c1.71-2.29,3.95-3.1,4.73-3.34c-0.41-0.13-4.57-1.44-8.16,1.21
		c-2.81,2.07-4.12,5.72-3.34,9.28c0.01,0.07,0.02,0.1,0.01,0.1c-0.11,0.04-1.03-2.6-3.2-3.97C9.49,9.27,8.47,8.65,7.1,8.7
		C6.04,8.75,5.27,9.19,4.83,9.45c-2.55,1.5-3.46,4.63-3.68,5.46c1.77-3.28,5.67-3.95,7.68-2.38C10.38,13.74,10.92,16.39,9.79,18.78z
		"/>
	<g>
		<path class="st0" d="M7.49,23.75c0-2.04,0.88-3.84,2.64-5.4c1.76-1.57,3.81-2.35,6.15-2.35c1.75,0,3.16,0.48,4.23,1.44
			c1.06,0.96,1.59,2.22,1.59,3.78c0,2.03-0.88,3.81-2.64,5.35s-3.84,2.31-6.23,2.31c-1.71,0-3.1-0.47-4.15-1.42
			C8.01,26.52,7.49,25.28,7.49,23.75z M16.06,16.74c-0.79,0-1.39,0.17-1.8,0.52s-0.78,1.06-1.1,2.12c-0.42,1.34-0.75,2.68-1.01,4.03
			s-0.39,2.35-0.39,3.01c0,0.59,0.15,1.02,0.45,1.29c0.3,0.27,0.77,0.41,1.42,0.41c0.72,0,1.28-0.17,1.69-0.52
			c0.41-0.35,0.76-0.97,1.04-1.86c0.45-1.39,0.8-2.78,1.06-4.16c0.26-1.39,0.4-2.44,0.4-3.16c0-0.57-0.14-0.99-0.43-1.26
			C17.11,16.88,16.67,16.74,16.06,16.74z"/>
	</g>
</g>
<g>
</g>
<g>
</g>
<g>
</g>
<g>
</g>
<g>
</g>
<g>
</g>
</svg>
