<?xml version="1.0" encoding="utf-8"?>
<!-- Generator: Adobe Illustrator 24.0.2, SVG Export Plug-In . SVG Version: 6.00 Build 0)  -->
<svg version="1.1" id="Capa_1" xmlns="http://www.w3.org/2000/svg" xmlns:xlink="http://www.w3.org/1999/xlink" x="0px" y="0px"
	 viewBox="0 0 830.42 379.34" style="enable-background:new 0 0 830.42 379.34;" xml:space="preserve">
<style type="text/css">
	.st0{fill:#058174;}
	.st1{fill:#97C988;}
</style>
<g>
	<g>
		<g>
			<path class="st0" d="M17.56,255.79v-9.63h23.64L79.15,70.31H56.97v-9.63h85.81c26.66,0,46.33,3.5,59.03,10.51
				c12.7,7,19.04,17.85,19.04,32.54c0,14.01-5.69,25.37-17.07,34.07c-11.38,8.71-26.95,13.55-46.7,14.52v2.19
				c17.32,1.75,30.57,6.62,39.77,14.59c9.19,7.98,13.79,18.63,13.79,31.96c0,17.03-6.76,30.4-20.28,40.13
				c-13.52,9.73-32.25,14.59-56.18,14.59H17.56z M89.51,246.16h31.08c7.68,0,13.59-0.92,17.73-2.77c4.13-1.85,7.52-5.01,10.14-9.49
				c2.33-3.79,4.86-11.65,7.59-23.57c2.72-11.92,4.09-22.55,4.09-31.89c0-6.91-2.33-11.89-7-14.96c-4.67-3.06-12.21-4.6-22.62-4.6
				h-22.47L89.51,246.16z M110.23,149.4h18.83c8.66,0,14.98-0.62,18.97-1.88c3.99-1.25,7.3-3.37,9.92-6.36
				c3.01-3.57,6.03-10.77,9.05-21.62c3.01-10.84,4.52-21.04,4.52-30.58c0-7.23-1.56-12.15-4.67-14.75c-3.11-2.6-8.95-3.9-17.51-3.9
				h-22.04L110.23,149.4z"/>
			<path class="st0" d="M243.47,224.12l17.66-75.88h-20.43l0.15-8.46c9.83-0.1,20.02-0.51,30.57-1.24
				c10.56-0.73,21.28-1.68,32.18-2.85L281.7,230.1c-0.88,3.6-1.48,6.23-1.82,7.88c-0.34,1.66-0.51,2.92-0.51,3.79
				c0,2.04,0.46,3.55,1.39,4.52c0.92,0.97,2.46,1.46,4.6,1.46c5.74,0,13.38-5.59,22.91-16.78c9.53-11.19,15.52-22.23,17.95-33.13
				l13.43-58.08h39.55l-22.77,98.07c-0.2,0.68-0.34,1.34-0.44,1.97c-0.1,0.63-0.15,1.19-0.15,1.68c0,1.75,0.41,3.14,1.24,4.16
				c0.83,1.02,2.02,1.53,3.58,1.53c3.21,0,7.34-3.01,12.4-9.05c5.06-6.03,9.49-13.72,13.28-23.06l5.98,2.48
				c-5.45,13.72-12.02,24.08-19.7,31.08c-7.69,7-16.39,10.51-26.12,10.51c-8.66,0-15.25-1.73-19.77-5.18
				c-4.52-3.45-6.79-8.44-6.79-14.96c0-1.36,0.19-3.31,0.58-5.84c0.39-2.53,0.97-6.03,1.75-10.51
				c-8.17,12.94-16.44,22.35-24.81,28.24c-8.37,5.88-17.71,8.83-28.02,8.83c-8.46,0-15.15-1.9-20.07-5.69
				c-4.91-3.79-7.37-8.9-7.37-15.32c0-2.33,0.12-4.74,0.36-7.22C242.61,229.01,242.98,226.55,243.47,224.12z"/>
			<path class="st0" d="M403.04,203.03v-8.46h24.68c6.37-26.36,15.13-46.65,26.3-60.85c11.16-14.2,23.82-21.31,37.96-21.31
				c7.61,0,13.87,2.53,18.79,7.59c4.92,5.06,7.38,11.29,7.38,18.68c0,5.25-1.28,9.51-3.85,12.77c-2.56,3.26-5.95,4.89-10.17,4.89
				c-4.55,0-8.17-1.39-10.85-4.16c-2.69-2.77-4.03-6.44-4.03-11.02c0-3.21,0.74-6.47,2.23-9.78c1.49-3.31,2.23-5.35,2.23-6.13
				c0-1.85-0.39-3.16-1.18-3.94c-0.79-0.78-2.25-1.17-4.4-1.17c-6.45,0-11.68,4.99-15.69,14.96c-4.01,9.97-8.17,29.8-12.47,59.47
				h26.17v8.46h-27.41l-2.48,13.86c-8.93,50.4-15.38,81.63-19.35,93.69c-6.62,20.04-15.09,35.75-25.43,47.14
				c-10.34,11.38-21.17,17.07-32.5,17.07c-8.27,0-14.93-2.46-19.97-7.37c-5.04-4.91-7.57-11.21-7.57-18.9
				c0-5.25,1.26-9.51,3.78-12.77c2.52-3.26,5.85-4.89,9.99-4.89c4.63,0,8.33,1.39,11.1,4.16c2.77,2.77,4.16,6.49,4.16,11.16
				c0,3.11-0.76,6.32-2.29,9.63c-1.53,3.31-2.29,5.35-2.29,6.13c0,1.95,0.42,3.28,1.24,4.01c0.83,0.73,2.28,1.09,4.34,1.09
				c10.67,0,20.42-26.9,29.27-80.7c5.54-33.76,10.54-61.53,15.01-83.33H403.04z"/>
			<path class="st1" d="M503,210.4c0-19.55,8.44-36.85,25.32-51.88c16.88-15.03,36.56-22.55,59.03-22.55
				c16.83,0,30.35,4.62,40.57,13.86c10.21,9.24,15.32,21.36,15.32,36.34c0,19.46-8.46,36.58-25.39,51.37
				c-16.93,14.79-36.87,22.18-59.83,22.18c-16.44,0-29.72-4.55-39.84-13.64C508.06,236.99,503,225.1,503,210.4z M585.31,143.13
				c-7.59,0-13.35,1.68-17.29,5.03s-7.47,10.14-10.58,20.36c-3.99,12.84-7.22,25.73-9.7,38.67c-2.48,12.94-3.72,22.57-3.72,28.89
				c0,5.64,1.43,9.78,4.3,12.4c2.87,2.63,7.42,3.94,13.65,3.94c6.91,0,12.33-1.68,16.27-5.04c3.94-3.36,7.27-9.31,10-17.88
				c4.28-13.33,7.68-26.66,10.21-39.99c2.53-13.33,3.79-23.44,3.79-30.35c0-5.45-1.36-9.49-4.09-12.11
				C595.42,144.44,591.14,143.13,585.31,143.13z"/>
			<path class="st0" d="M702.05,255.79h-39.4l24.52-107.84h-20.43l0.15-8.17c9.63-0.1,19.58-0.49,29.84-1.17
				c10.26-0.68,20.89-1.65,31.89-2.92l-8.9,36.19c8.85-12.55,17.46-21.72,25.83-27.51c8.37-5.79,17.17-8.68,26.41-8.68
				c8.76,0,15.64,2.02,20.65,6.06c5.01,4.04,7.52,9.56,7.52,16.56c0,1.85-0.1,3.53-0.29,5.03c-0.2,1.51-0.49,2.99-0.88,4.45
				l-17.07,69.17c-0.1,0.29-0.17,0.71-0.22,1.24c-0.05,0.54-0.07,1.34-0.07,2.41c0,2.14,0.37,3.6,1.09,4.38
				c0.73,0.78,1.97,1.17,3.72,1.17c3.4,0,7.59-2.99,12.55-8.97s9.24-13.64,12.84-22.98l6.28,2.48
				c-4.96,13.82-11.55,24.13-19.77,30.94c-8.22,6.81-18.17,10.22-29.84,10.22c-7.49,0-13.4-1.73-17.73-5.18
				c-4.33-3.45-6.49-8.1-6.49-13.94c0-2.04,0.24-4.64,0.73-7.81c0.49-3.16,1.12-6.35,1.9-9.56l14.16-56.77
				c0.58-2.63,1.02-4.89,1.31-6.79s0.44-3.38,0.44-4.45c0-1.95-0.51-3.38-1.53-4.31c-1.02-0.92-2.51-1.39-4.45-1.39
				c-5.84,0-13.5,5.33-22.98,15.98s-15.49,21.23-18.02,31.74L702.05,255.79z"/>
		</g>
	</g>
	<path class="st1" d="M525.13,162.32c2.66-3.05,23.84-26.53,58.27-25.19c34.92,1.37,54.3,27.13,56.61,30.31
		c-1.61-3.51-8.14-18.74-1.37-34.22c3.05-6.97,7.54-11.12,10.19-13.52c8.41-7.6,24.71-16.86,44.17-12.5
		c22.74,5.09,32.84,25.13,34.19,27.92c1.56-25.97-8.83-39.02-12.04-42.67c-20.56-23.32-68.19-25.14-111.31,4.86
		c-0.1-7.66,0.55-32.06,17.95-55.34c16.42-21.96,37.9-29.76,45.41-32.1c-3.89-1.29-43.91-13.79-78.36,11.62
		c-26.95,19.88-39.61,54.94-32.1,89.13c0.14,0.64,0.18,0.94,0.13,0.95c-1.05,0.35-9.91-24.95-30.76-38.13
		c-3.9-2.46-13.68-8.46-26.8-7.92c-10.26,0.42-17.63,4.64-21.86,7.13c-24.52,14.42-33.25,44.5-35.33,52.43
		c16.95-31.46,54.47-37.91,73.74-22.82C530.76,113.93,535.91,139.36,525.13,162.32z"/>
	<path class="st0" d="M465.91,69.02"/>
</g>
<g>
</g>
<g>
</g>
<g>
</g>
<g>
</g>
<g>
</g>
<g>
</g>
</svg>
